<?xml version="1.0" encoding="UTF-8"?>
<svg xmlns="http://www.w3.org/2000/svg" viewBox="0 0 500 400" width="500" height="400" shape-rendering="crispEdges">
  <rect x="0" y="0" width="500" height="10" fill="#2c2e3a"/>
  <rect x="0" y="10" width="480" height="5" fill="#3c3c46"/>
  <rect x="480" y="10" width="20" height="380" fill="#2c2e3a"/>
  <rect x="0" y="15" width="5" height="370" fill="#3c3c46"/>
  <rect x="5" y="15" width="470" height="25" fill="#3e4254"/>
  <rect x="475" y="15" width="5" height="370" fill="#3c3c46"/>
  <rect x="5" y="40" width="15" height="200" fill="#3e4254"/>
  <rect x="20" y="40" width="440" height="40" fill="#96a0ac"/>
  <rect x="460" y="40" width="15" height="200" fill="#3e4254"/>
  <rect x="20" y="80" width="380" height="20" fill="#96a0ac"/>
  <rect x="400" y="80" width="20" height="40" fill="#5cae5a"/>
  <rect x="420" y="80" width="40" height="20" fill="#96a0ac"/>
  <rect x="20" y="100" width="140" height="120" fill="#96a0ac"/>
  <rect x="160" y="100" width="160" height="50" fill="#5a3a22"/>
  <rect x="320" y="100" width="70" height="60" fill="#96a0ac"/>
  <rect x="390" y="100" width="10" height="20" fill="#2f6b35"/>
  <rect x="420" y="100" width="10" height="20" fill="#2f6b35"/>
  <rect x="430" y="100" width="30" height="60" fill="#96a0ac"/>
  <rect x="390" y="120" width="15" height="50" fill="#2f6b35"/>
  <rect x="405" y="120" width="10" height="40" fill="#96a0ac"/>
  <rect x="415" y="120" width="15" height="50" fill="#2f6b35"/>
  <rect x="160" y="150" width="20" height="40" fill="#5a3a22"/>
  <rect x="180" y="150" width="120" height="20" fill="#f0c49a"/>
  <rect x="300" y="150" width="20" height="40" fill="#5a3a22"/>
  <rect x="320" y="160" width="60" height="60" fill="#96a0ac"/>
  <rect x="380" y="160" width="10" height="10" fill="#b5673a"/>
  <rect x="405" y="160" width="10" height="10" fill="#b5673a"/>
  <rect x="430" y="160" width="10" height="10" fill="#b5673a"/>
  <rect x="440" y="160" width="20" height="80" fill="#96a0ac"/>
  <rect x="180" y="170" width="15" height="5" fill="#f0c49a"/>
  <rect x="195" y="170" width="25" height="5" fill="#5a3a22"/>
  <rect x="220" y="170" width="40" height="5" fill="#f0c49a"/>
  <rect x="260" y="170" width="25" height="5" fill="#5a3a22"/>
  <rect x="285" y="170" width="15" height="5" fill="#f0c49a"/>
  <rect x="380" y="170" width="60" height="70" fill="#b5673a"/>
  <rect x="180" y="175" width="120" height="5" fill="#f0c49a"/>
  <rect x="180" y="180" width="15" height="10" fill="#f0c49a"/>
  <rect x="195" y="180" width="25" height="5" fill="#e8e8ee"/>
  <rect x="220" y="180" width="40" height="20" fill="#f0c49a"/>
  <rect x="260" y="180" width="25" height="5" fill="#e8e8ee"/>
  <rect x="285" y="180" width="15" height="10" fill="#f0c49a"/>
  <rect x="195" y="185" width="10" height="5" fill="#e8e8ee"/>
  <rect x="205" y="185" width="5" height="5" fill="#28221c"/>
  <rect x="210" y="185" width="10" height="5" fill="#e8e8ee"/>
  <rect x="260" y="185" width="10" height="5" fill="#e8e8ee"/>
  <rect x="270" y="185" width="5" height="5" fill="#28221c"/>
  <rect x="275" y="185" width="10" height="5" fill="#e8e8ee"/>
  <rect x="160" y="190" width="35" height="10" fill="#f0c49a"/>
  <rect x="195" y="190" width="25" height="10" fill="#e8e8ee"/>
  <rect x="260" y="190" width="25" height="10" fill="#e8e8ee"/>
  <rect x="285" y="190" width="35" height="10" fill="#f0c49a"/>
  <rect x="160" y="200" width="160" height="10" fill="#f0c49a"/>
  <rect x="160" y="210" width="75" height="10" fill="#f0c49a"/>
  <rect x="235" y="210" width="15" height="20" fill="#d49a6e"/>
  <rect x="250" y="210" width="70" height="10" fill="#f0c49a"/>
  <rect x="20" y="220" width="150" height="20" fill="#96a0ac"/>
  <rect x="170" y="220" width="65" height="10" fill="#f0c49a"/>
  <rect x="250" y="220" width="60" height="10" fill="#f0c49a"/>
  <rect x="310" y="220" width="70" height="20" fill="#96a0ac"/>
  <rect x="170" y="230" width="140" height="20" fill="#f0c49a"/>
  <rect x="5" y="240" width="165" height="40" fill="#3e4254"/>
  <rect x="310" y="240" width="165" height="40" fill="#3e4254"/>
  <rect x="170" y="250" width="45" height="10" fill="#f0c49a"/>
  <rect x="215" y="250" width="50" height="10" fill="#d49a6e"/>
  <rect x="265" y="250" width="45" height="10" fill="#f0c49a"/>
  <rect x="170" y="260" width="140" height="20" fill="#f0c49a"/>
  <rect x="5" y="280" width="205" height="30" fill="#3e4254"/>
  <rect x="210" y="280" width="60" height="40" fill="#f0c49a"/>
  <rect x="270" y="280" width="205" height="30" fill="#3e4254"/>
  <rect x="5" y="310" width="95" height="75" fill="#3e4254"/>
  <rect x="100" y="310" width="110" height="5" fill="#8a929b"/>
  <rect x="270" y="310" width="110" height="5" fill="#8a929b"/>
  <rect x="380" y="310" width="95" height="75" fill="#3e4254"/>
  <rect x="100" y="315" width="5" height="70" fill="#8a929b"/>
  <rect x="105" y="315" width="105" height="5" fill="#e8e8ee"/>
  <rect x="270" y="315" width="105" height="5" fill="#e8e8ee"/>
  <rect x="375" y="315" width="5" height="70" fill="#8a929b"/>
  <rect x="105" y="320" width="115" height="65" fill="#e8e8ee"/>
  <rect x="220" y="320" width="40" height="70" fill="#b8443a"/>
  <rect x="260" y="320" width="115" height="65" fill="#e8e8ee"/>
  <rect x="0" y="385" width="100" height="5" fill="#3c3c46"/>
  <rect x="100" y="385" width="120" height="5" fill="#8a929b"/>
  <rect x="260" y="385" width="120" height="5" fill="#8a929b"/>
  <rect x="380" y="385" width="100" height="5" fill="#3c3c46"/>
  <rect x="0" y="390" width="500" height="10" fill="#2c2e3a"/>
</svg>
