<?xml version="1.0" encoding="UTF-8"?>
<svg xmlns="http://www.w3.org/2000/svg" viewBox="0 0 500 400" width="500" height="400" shape-rendering="crispEdges">
  <rect x="0" y="0" width="500" height="10" fill="#2c2e3a"/>
  <rect x="0" y="10" width="20" height="380" fill="#2c2e3a"/>
  <rect x="20" y="10" width="480" height="5" fill="#3c3c46"/>
  <rect x="20" y="15" width="5" height="370" fill="#3c3c46"/>
  <rect x="25" y="15" width="470" height="35" fill="#96a0ac"/>
  <rect x="495" y="15" width="5" height="370" fill="#3c3c46"/>
  <rect x="25" y="50" width="25" height="15" fill="#96a0ac"/>
  <rect x="50" y="50" width="420" height="15" fill="#785634"/>
  <rect x="470" y="50" width="25" height="15" fill="#96a0ac"/>
  <rect x="25" y="65" width="470" height="5" fill="#96a0ac"/>
  <rect x="25" y="70" width="35" height="80" fill="#96a0ac"/>
  <rect x="60" y="70" width="35" height="80" fill="#b8443a"/>
  <rect x="95" y="70" width="10" height="80" fill="#96a0ac"/>
  <rect x="105" y="70" width="35" height="80" fill="#3a78c0"/>
  <rect x="140" y="70" width="10" height="80" fill="#96a0ac"/>
  <rect x="150" y="70" width="35" height="40" fill="#5cae5a"/>
  <rect x="185" y="70" width="10" height="40" fill="#96a0ac"/>
  <rect x="195" y="70" width="35" height="40" fill="#b07a43"/>
  <rect x="230" y="70" width="10" height="40" fill="#96a0ac"/>
  <rect x="240" y="70" width="35" height="40" fill="#8a929b"/>
  <rect x="275" y="70" width="10" height="40" fill="#96a0ac"/>
  <rect x="285" y="70" width="35" height="40" fill="#b8443a"/>
  <rect x="320" y="70" width="10" height="40" fill="#96a0ac"/>
  <rect x="330" y="70" width="35" height="40" fill="#5cae5a"/>
  <rect x="365" y="70" width="10" height="80" fill="#96a0ac"/>
  <rect x="375" y="70" width="35" height="80" fill="#3a78c0"/>
  <rect x="410" y="70" width="10" height="80" fill="#96a0ac"/>
  <rect x="420" y="70" width="35" height="80" fill="#b07a43"/>
  <rect x="455" y="70" width="40" height="80" fill="#96a0ac"/>
  <rect x="150" y="110" width="30" height="40" fill="#5cae5a"/>
  <rect x="180" y="110" width="160" height="40" fill="#cfc4ab"/>
  <rect x="340" y="110" width="25" height="40" fill="#5cae5a"/>
  <rect x="25" y="150" width="155" height="10" fill="#96a0ac"/>
  <rect x="180" y="150" width="20" height="40" fill="#cfc4ab"/>
  <rect x="200" y="150" width="120" height="30" fill="#c49678"/>
  <rect x="320" y="150" width="20" height="40" fill="#cfc4ab"/>
  <rect x="340" y="150" width="155" height="10" fill="#96a0ac"/>
  <rect x="25" y="160" width="25" height="15" fill="#96a0ac"/>
  <rect x="50" y="160" width="130" height="15" fill="#785634"/>
  <rect x="340" y="160" width="130" height="15" fill="#785634"/>
  <rect x="470" y="160" width="25" height="15" fill="#96a0ac"/>
  <rect x="25" y="175" width="155" height="45" fill="#96a0ac"/>
  <rect x="340" y="175" width="155" height="45" fill="#96a0ac"/>
  <rect x="200" y="180" width="10" height="30" fill="#c49678"/>
  <rect x="210" y="180" width="40" height="10" fill="#3c3c46"/>
  <rect x="250" y="180" width="20" height="10" fill="#c49678"/>
  <rect x="270" y="180" width="40" height="10" fill="#3c3c46"/>
  <rect x="310" y="180" width="10" height="30" fill="#c49678"/>
  <rect x="180" y="190" width="15" height="20" fill="#c49678"/>
  <rect x="195" y="190" width="5" height="20" fill="#cfc4ab"/>
  <rect x="210" y="190" width="10" height="15" fill="#3c3c46"/>
  <rect x="220" y="190" width="20" height="15" fill="#e8e8ee"/>
  <rect x="240" y="190" width="40" height="10" fill="#3c3c46"/>
  <rect x="280" y="190" width="20" height="15" fill="#e8e8ee"/>
  <rect x="300" y="190" width="10" height="15" fill="#3c3c46"/>
  <rect x="320" y="190" width="5" height="20" fill="#cfc4ab"/>
  <rect x="325" y="190" width="15" height="20" fill="#c49678"/>
  <rect x="240" y="200" width="10" height="5" fill="#3c3c46"/>
  <rect x="250" y="200" width="20" height="15" fill="#c49678"/>
  <rect x="270" y="200" width="10" height="5" fill="#3c3c46"/>
  <rect x="210" y="205" width="40" height="10" fill="#3c3c46"/>
  <rect x="270" y="205" width="40" height="10" fill="#3c3c46"/>
  <rect x="180" y="210" width="30" height="5" fill="#c49678"/>
  <rect x="310" y="210" width="30" height="5" fill="#c49678"/>
  <rect x="180" y="215" width="160" height="5" fill="#c49678"/>
  <rect x="25" y="220" width="165" height="60" fill="#96a0ac"/>
  <rect x="190" y="220" width="65" height="20" fill="#c49678"/>
  <rect x="255" y="220" width="15" height="20" fill="#966e52"/>
  <rect x="270" y="220" width="60" height="20" fill="#c49678"/>
  <rect x="330" y="220" width="165" height="60" fill="#96a0ac"/>
  <rect x="190" y="240" width="140" height="10" fill="#c49678"/>
  <rect x="190" y="250" width="45" height="10" fill="#c49678"/>
  <rect x="235" y="250" width="50" height="10" fill="#966e52"/>
  <rect x="285" y="250" width="45" height="10" fill="#c49678"/>
  <rect x="190" y="260" width="140" height="20" fill="#c49678"/>
  <rect x="25" y="280" width="205" height="30" fill="#96a0ac"/>
  <rect x="230" y="280" width="60" height="40" fill="#c49678"/>
  <rect x="290" y="280" width="205" height="30" fill="#96a0ac"/>
  <rect x="25" y="310" width="95" height="75" fill="#96a0ac"/>
  <rect x="120" y="310" width="110" height="5" fill="#8a929b"/>
  <rect x="290" y="310" width="110" height="5" fill="#8a929b"/>
  <rect x="400" y="310" width="95" height="75" fill="#96a0ac"/>
  <rect x="120" y="315" width="5" height="70" fill="#8a929b"/>
  <rect x="125" y="315" width="105" height="5" fill="#e8e8ee"/>
  <rect x="290" y="315" width="105" height="5" fill="#e8e8ee"/>
  <rect x="395" y="315" width="5" height="70" fill="#8a929b"/>
  <rect x="125" y="320" width="115" height="65" fill="#e8e8ee"/>
  <rect x="240" y="320" width="40" height="70" fill="#3a78c0"/>
  <rect x="280" y="320" width="115" height="65" fill="#e8e8ee"/>
  <rect x="20" y="385" width="100" height="5" fill="#3c3c46"/>
  <rect x="120" y="385" width="120" height="5" fill="#8a929b"/>
  <rect x="280" y="385" width="120" height="5" fill="#8a929b"/>
  <rect x="400" y="385" width="100" height="5" fill="#3c3c46"/>
  <rect x="0" y="390" width="500" height="10" fill="#2c2e3a"/>
</svg>
