<?xml version="1.0" encoding="UTF-8"?>
<svg xmlns="http://www.w3.org/2000/svg" viewBox="0 0 576 456" width="576" height="456" shape-rendering="crispEdges">
  <rect x="0" y="0" width="576" height="36" fill="#3e4254"/>
  <rect x="0" y="36" width="24" height="240" fill="#3e4254"/>
  <rect x="24" y="36" width="528" height="72" fill="#216460"/>
  <rect x="552" y="36" width="24" height="240" fill="#3e4254"/>
  <rect x="24" y="108" width="162" height="72" fill="#216460"/>
  <rect x="186" y="108" width="204" height="54" fill="#28221c"/>
  <rect x="390" y="108" width="162" height="72" fill="#216460"/>
  <rect x="186" y="162" width="24" height="18" fill="#28221c"/>
  <rect x="210" y="162" width="156" height="42" fill="#f0c49a"/>
  <rect x="366" y="162" width="24" height="18" fill="#28221c"/>
  <rect x="24" y="180" width="156" height="72" fill="#216460"/>
  <rect x="180" y="180" width="12" height="24" fill="#3c3c46"/>
  <rect x="192" y="180" width="18" height="24" fill="#28221c"/>
  <rect x="366" y="180" width="18" height="24" fill="#28221c"/>
  <rect x="384" y="180" width="12" height="24" fill="#3c3c46"/>
  <rect x="396" y="180" width="156" height="72" fill="#216460"/>
  <rect x="180" y="204" width="30" height="12" fill="#3c3c46"/>
  <rect x="210" y="204" width="24" height="24" fill="#f0c49a"/>
  <rect x="234" y="204" width="30" height="6" fill="#e8e8ee"/>
  <rect x="264" y="204" width="48" height="24" fill="#f0c49a"/>
  <rect x="312" y="204" width="30" height="6" fill="#e8e8ee"/>
  <rect x="342" y="204" width="24" height="12" fill="#f0c49a"/>
  <rect x="366" y="204" width="30" height="12" fill="#3c3c46"/>
  <rect x="234" y="210" width="12" height="6" fill="#e8e8ee"/>
  <rect x="246" y="210" width="6" height="6" fill="#28221c"/>
  <rect x="252" y="210" width="12" height="6" fill="#e8e8ee"/>
  <rect x="312" y="210" width="12" height="6" fill="#e8e8ee"/>
  <rect x="324" y="210" width="6" height="6" fill="#28221c"/>
  <rect x="330" y="210" width="12" height="6" fill="#e8e8ee"/>
  <rect x="180" y="216" width="6" height="36" fill="#3c3c46"/>
  <rect x="186" y="216" width="18" height="36" fill="#f0c49a"/>
  <rect x="204" y="216" width="6" height="36" fill="#3c3c46"/>
  <rect x="234" y="216" width="30" height="12" fill="#e8e8ee"/>
  <rect x="312" y="216" width="30" height="12" fill="#e8e8ee"/>
  <rect x="342" y="216" width="42" height="12" fill="#f0c49a"/>
  <rect x="384" y="216" width="12" height="36" fill="#3c3c46"/>
  <rect x="210" y="228" width="174" height="12" fill="#f0c49a"/>
  <rect x="210" y="240" width="72" height="12" fill="#f0c49a"/>
  <rect x="282" y="240" width="18" height="24" fill="#d49a6e"/>
  <rect x="300" y="240" width="84" height="12" fill="#f0c49a"/>
  <rect x="24" y="252" width="180" height="24" fill="#216460"/>
  <rect x="204" y="252" width="78" height="12" fill="#f0c49a"/>
  <rect x="300" y="252" width="72" height="12" fill="#f0c49a"/>
  <rect x="372" y="252" width="180" height="24" fill="#216460"/>
  <rect x="204" y="264" width="168" height="24" fill="#f0c49a"/>
  <rect x="0" y="276" width="204" height="48" fill="#3e4254"/>
  <rect x="372" y="276" width="204" height="48" fill="#3e4254"/>
  <rect x="204" y="288" width="54" height="12" fill="#f0c49a"/>
  <rect x="258" y="288" width="60" height="12" fill="#d49a6e"/>
  <rect x="318" y="288" width="54" height="12" fill="#f0c49a"/>
  <rect x="204" y="300" width="168" height="24" fill="#f0c49a"/>
  <rect x="0" y="324" width="252" height="24" fill="#3e4254"/>
  <rect x="252" y="324" width="72" height="48" fill="#f0c49a"/>
  <rect x="324" y="324" width="252" height="24" fill="#3e4254"/>
  <rect x="0" y="348" width="108" height="108" fill="#3e4254"/>
  <rect x="108" y="348" width="96" height="36" fill="#2f8c86"/>
  <rect x="204" y="348" width="48" height="24" fill="#216460"/>
  <rect x="324" y="348" width="48" height="24" fill="#216460"/>
  <rect x="372" y="348" width="96" height="36" fill="#2f8c86"/>
  <rect x="468" y="348" width="108" height="108" fill="#3e4254"/>
  <rect x="204" y="372" width="168" height="12" fill="#216460"/>
  <rect x="108" y="384" width="360" height="72" fill="#2f8c86"/>
</svg>
